<?xml version="1.0" encoding="UTF-8"?>
<svg width="104px" height="97px" viewBox="0 0 104 97" version="1.1" xmlns="http://www.w3.org/2000/svg" xmlns:xlink="http://www.w3.org/1999/xlink">
    <!-- Generator: Sketch 53.2 (72643) - https://sketchapp.com -->
    <title>Group 21</title>
    <desc>Created with Sketch.</desc>
    <defs>
        <path d="M11.2,4 L44.8,4 C50.9855892,4 56,9.0144108 56,15.2 L56,37.8506912 C56,44.0362804 50.9855892,49.0506912 44.8,49.0506912 L35,49.0506912 L28,56 L21,49.0506912 L11.2,49.0506912 C5.0144108,49.0506912 2.53387304e-15,44.0362804 1.77635684e-15,37.8506912 L0,15.2 C-7.57516201e-16,9.0144108 5.0144108,4 11.2,4 Z" id="path-1"></path>
        <filter x="-75.0%" y="-57.7%" width="250.0%" height="261.5%" filterUnits="objectBoundingBox" id="filter-2">
            <feOffset dx="0" dy="12" in="SourceAlpha" result="shadowOffsetOuter1"></feOffset>
            <feGaussianBlur stdDeviation="12" in="shadowOffsetOuter1" result="shadowBlurOuter1"></feGaussianBlur>
            <feColorMatrix values="0 0 0 0 0   0 0 0 0 0   0 0 0 0 0  0 0 0 0.224694293 0" type="matrix" in="shadowBlurOuter1"></feColorMatrix>
        </filter>
    </defs>
    <g id="Table" stroke="none" stroke-width="1" fill="none" fill-rule="evenodd">
        <g id="Artboard-Copy-46" transform="translate(-630.000000, -702.000000)" fill-rule="nonzero">
            <g id="Group-21" transform="translate(654.000000, 710.000000)">
                <g id="Rectangle" opacity="0.639999986">
                    <use fill="black" fill-opacity="1" filter="url(#filter-2)" xlink:href="#path-1"></use>
                    <use fill="#FFFFFF" xlink:href="#path-1"></use>
                </g>
                <path d="M11.2,0 L44.8,0 C50.9855892,-1.1362743e-15 56,5.0144108 56,11.2 L56,33.8506912 C56,40.0362804 50.9855892,45.0506912 44.8,45.0506912 L35,45.0506912 L28,52 L21,45.0506912 L11.2,45.0506912 C5.0144108,45.0506912 2.53387304e-15,40.0362804 1.77635684e-15,33.8506912 L0,11.2 C-7.57516201e-16,5.0144108 5.0144108,1.1362743e-15 11.2,0 Z" id="Rectangle-Copy-4" fill="#FFFFFF"></path>
                <path d="M28,25 C26.3457303,25 25,23.6541299 25,21.9996883 C25,20.3458701 26.3457303,19 28,19 C29.6542697,19 31,20.3458701 31,21.9996883 C31,23.6541299 29.6542697,25 28,25 Z" id="Shape" fill="#000000"></path>
                <path d="M39,25 C37.3457303,25 36,23.6541299 36,21.9996883 C36,20.3458701 37.3457303,19 39,19 C40.6542697,19 42,20.3458701 42,21.9996883 C42,23.6541299 40.6542697,25 39,25 Z" id="Shape-Copy-2" fill="#000000"></path>
                <path d="M17,25 C15.3457303,25 14,23.6541299 14,21.9996883 C14,20.3458701 15.3457303,19 17,19 C18.6542697,19 20,20.3458701 20,21.9996883 C20,23.6541299 18.6542697,25 17,25 Z" id="Shape-Copy" fill="#000000"></path>
            </g>
        </g>
    </g>
</svg>