<svg xmlns="http://www.w3.org/2000/svg" width="58" height="55" viewBox="0 0 58 55">
    <g fill="none" fill-rule="evenodd">
        <path fill="#FFF" fill-rule="nonzero" d="M29 26c-1.654 0-3-1.346-3-3s1.346-3 3-3 3 1.346 3 3-1.346 3-3 3zM40 26c-1.654 0-3-1.346-3-3s1.346-3 3-3 3 1.346 3 3-1.346 3-3 3zM18 26c-1.654 0-3-1.346-3-3s1.346-3 3-3 3 1.346 3 3-1.346 3-3 3z"/>
        <path stroke="#FFF" stroke-linecap="round" stroke-width="2" d="M12.2 1h33.6C51.986 1 57 6.014 57 12.2v22.65c0 6.186-5.014 11.2-11.2 11.2H36L29 53l-7-6.95h-9.8C6.014 46.05 1 41.037 1 34.85V12.2C1 6.014 6.014 1 12.2 1z"/>
    </g>
</svg>
