<svg xmlns="http://www.w3.org/2000/svg" width="48" height="49" viewBox="0 0 48 49">
    <g fill="none" fill-rule="nonzero">
        <path stroke="#FFF" stroke-width="2" d="M10.2 1h27.6a9.2 9.2 0 0 1 9.2 9.2v21.892a9.2 9.2 0 0 1-9.2 9.2h-8.05L24 47l-5.75-5.708H10.2a9.2 9.2 0 0 1-9.2-9.2V10.2A9.2 9.2 0 0 1 10.2 1z"/>
        <path fill="#FFF" d="M24 23.179a2.467 2.467 0 0 1-2.464-2.465A2.467 2.467 0 0 1 24 18.25a2.467 2.467 0 0 1 2.464 2.464A2.467 2.467 0 0 1 24 23.179zM33.036 23.179a2.467 2.467 0 0 1-2.465-2.465 2.467 2.467 0 0 1 2.465-2.464 2.467 2.467 0 0 1 2.464 2.464 2.467 2.467 0 0 1-2.464 2.465zM14.964 23.179a2.467 2.467 0 0 1-2.464-2.465 2.467 2.467 0 0 1 2.464-2.464 2.467 2.467 0 0 1 2.465 2.464 2.467 2.467 0 0 1-2.465 2.465z"/>
    </g>
</svg>
