<?xml version="1.0" encoding="UTF-8"?>
<svg width="65px" height="60px" viewBox="0 0 65 60" version="1.1" xmlns="http://www.w3.org/2000/svg" xmlns:xlink="http://www.w3.org/1999/xlink">
    <!-- Generator: Sketch 52.6 (67491) - http://www.bohemiancoding.com/sketch -->
    <title>Group 17</title>
    <desc>Created with Sketch.</desc>
    <defs>
        <linearGradient x1="50%" y1="1.36831647%" x2="50%" y2="96.8614523%" id="linearGradient-1">
            <stop stop-color="#FC6C02" offset="0%"></stop>
            <stop stop-color="#FC4C02" offset="100%"></stop>
        </linearGradient>
        <path d="M0,8.00709688 C0,3.58489938 3.58343124,0 8.00074125,0 L27.9992587,0 C32.4179461,0 36,3.58817117 36,8.00709688 L36,39.9929031 C36,44.4151006 32.4165688,48 27.9992587,48 L8.00074125,48 C3.58205387,48 0,44.4118288 0,39.9929031 L0,8.00709688 Z" id="path-2"></path>
        <filter x="-27.8%" y="-16.7%" width="155.6%" height="141.7%" filterUnits="objectBoundingBox" id="filter-3">
            <feOffset dx="0" dy="2" in="SourceAlpha" result="shadowOffsetOuter1"></feOffset>
            <feGaussianBlur stdDeviation="3" in="shadowOffsetOuter1" result="shadowBlurOuter1"></feGaussianBlur>
            <feComposite in="shadowBlurOuter1" in2="SourceAlpha" operator="out" result="shadowBlurOuter1"></feComposite>
            <feColorMatrix values="0 0 0 0 0   0 0 0 0 0   0 0 0 0 0  0 0 0 0.08 0" type="matrix" in="shadowBlurOuter1"></feColorMatrix>
        </filter>
        <path d="M0,8.00709688 C0,3.58489938 3.58343124,0 8.00074125,0 L27.9992587,0 C32.4179461,0 36,3.58817117 36,8.00709688 L36,39.9929031 C36,44.4151006 32.4165688,48 27.9992587,48 L8.00074125,48 C3.58205387,48 0,44.4118288 0,39.9929031 L0,8.00709688 Z" id="path-4"></path>
        <filter x="-27.8%" y="-16.7%" width="155.6%" height="141.7%" filterUnits="objectBoundingBox" id="filter-5">
            <feOffset dx="0" dy="2" in="SourceAlpha" result="shadowOffsetOuter1"></feOffset>
            <feGaussianBlur stdDeviation="3" in="shadowOffsetOuter1" result="shadowBlurOuter1"></feGaussianBlur>
            <feComposite in="shadowBlurOuter1" in2="SourceAlpha" operator="out" result="shadowBlurOuter1"></feComposite>
            <feColorMatrix values="0 0 0 0 0   0 0 0 0 0   0 0 0 0 0  0 0 0 0.08 0" type="matrix" in="shadowBlurOuter1"></feColorMatrix>
        </filter>
    </defs>
    <g id="back_cards" stroke="none" stroke-width="1" fill="none" fill-rule="evenodd">
        <g id="Artboard-Copy-24" transform="translate(-93.000000, -430.000000)">
            <g id="Group-17" transform="translate(125.500000, 458.000000) scale(-1, 1) translate(-125.500000, -458.000000) translate(99.000000, 434.000000)">
                <g id="Group-7" transform="translate(17.000000, 0.000000)">
                    <g id="Group-16-Copy-5">
                        <g id="Mask" transform="translate(18.000000, 24.000000) scale(-1, 1) translate(-18.000000, -24.000000) ">
                            <use fill="black" fill-opacity="1" filter="url(#filter-3)" xlink:href="#path-2"></use>
                            <path stroke="#FFFFFF" stroke-width="3" d="M1.5,8.00709688 L1.5,39.9929031 C1.5,43.5848929 4.41197137,46.5 8.00074125,46.5 L27.9992587,46.5 C31.5883905,46.5 34.5,43.5864241 34.5,39.9929031 L34.5,8.00709688 C34.5,4.41510713 31.5880286,1.5 27.9992587,1.5 L8.00074125,1.5 C4.41160946,1.5 1.5,4.41357591 1.5,8.00709688 Z" stroke-linejoin="square" fill="#FC6C02" fill-rule="evenodd"></path>
                        </g>
                    </g>
                    <path d="M18.0008575,10.6666667 C18.0008575,10.6666667 18.6030885,17.8033588 27,24.0002935 C18.6030885,30.1972328 18.0008575,37.3333333 18.0008575,37.3333333 C18.0008575,37.3333333 17.3963623,30.1972328 9,24.0002935 C17.3963623,17.8033588 18.0008575,10.6666667 18.0008575,10.6666667 Z M18.0000056,29.3333328 C19.2021361,27.4353798 20.7185583,25.6396801 22.5000084,24.0000028 C20.7185583,22.3603255 19.2021361,20.5646258 18.0000056,18.6666706 L18.0000056,29.3333328 Z" id="Clip-8-Copy-2" fill="#FFFFFF"></path>
                </g>
                <g id="Group-7-Copy">
                    <g id="Group-16-Copy-5">
                        <g id="Mask" transform="translate(18.000000, 24.000000) scale(-1, 1) translate(-18.000000, -24.000000) ">
                            <use fill="black" fill-opacity="1" filter="url(#filter-5)" xlink:href="#path-4"></use>
                            <path stroke="#FFFFFF" stroke-width="3" d="M1.5,8.00709688 L1.5,39.9929031 C1.5,43.5848929 4.41197137,46.5 8.00074125,46.5 L27.9992587,46.5 C31.5883905,46.5 34.5,43.5864241 34.5,39.9929031 L34.5,8.00709688 C34.5,4.41510713 31.5880286,1.5 27.9992587,1.5 L8.00074125,1.5 C4.41160946,1.5 1.5,4.41357591 1.5,8.00709688 Z" stroke-linejoin="square" fill="#FC6C02" fill-rule="evenodd"></path>
                        </g>
                    </g>
                    <path d="M18.0008575,10.6666667 C18.0008575,10.6666667 18.6030885,17.8033588 27,24.0002935 C18.6030885,30.1972328 18.0008575,37.3333333 18.0008575,37.3333333 C18.0008575,37.3333333 17.3963623,30.1972328 9,24.0002935 C17.3963623,17.8033588 18.0008575,10.6666667 18.0008575,10.6666667 Z M18.0000056,29.3333328 C19.2021361,27.4353798 20.7185583,25.6396801 22.5000084,24.0000028 C20.7185583,22.3603255 19.2021361,20.5646258 18.0000056,18.6666706 L18.0000056,29.3333328 Z" id="Clip-8-Copy-2" fill="#FFFFFF"></path>
                </g>
            </g>
        </g>
    </g>
</svg>