<svg xmlns="http://www.w3.org/2000/svg" xmlns:xlink="http://www.w3.org/1999/xlink" width="78" height="106" viewBox="0 0 78 106">
  <defs>
    <path id="33-b" d="M0,9.00325975 C0,4.03089669 4.0253119,-7.10542736e-15 9.00957983,-7.10542736e-15 L62.9904202,-7.10542736e-15 C67.9662737,-7.10542736e-15 72,4.026957 72,9.00325975 L72,90.9610261 C72,95.9333892 67.9746881,99.9642859 62.9904202,99.9642859 L9.00957983,99.9642859 C4.03372629,99.9642859 0,95.9373289 0,90.9610261 L0,9.00325975 Z"/>
    <filter id="33-a" width="115.3%" height="111%" x="-7.6%" y="-3.5%" filterUnits="objectBoundingBox">
      <feOffset dy="2" in="SourceAlpha" result="shadowOffsetOuter1"/>
      <feGaussianBlur in="shadowOffsetOuter1" result="shadowBlurOuter1" stdDeviation="1.5"/>
      <feColorMatrix in="shadowBlurOuter1" values="0 0 0 0 0   0 0 0 0 0   0 0 0 0 0  0 0 0 0.08 0"/>
    </filter>
  </defs>
  <g id="card" fill="none" fill-rule="evenodd" transform="translate(3 1)">
    <use fill="#000" filter="url(#33-a)" xlink:href="#33-b"/>
    <use fill="#FFF" xlink:href="#33-b"/>
    <path fill="#000" d="M40.7675,74.16 C38.9675,73.92 37.4075,73.84 35.4875,73.84 C33.4875,73.84 32.1275,73.92 30.5675,74.16 C32.4475,71.48 33.0475,70.28 33.6475,68.36 C34.1675,66.64 34.4475,64.16 34.4475,61.44 C34.4475,60.84 34.3275,60.56 34.0475,60.56 C33.7275,60.56 33.7275,60.6 33.4475,62.08 C33.1675,63.56 32.2475,65.08 30.9275,66.32 C29.6075,67.6 27.8875,68.24 25.8475,68.24 C21.8475,68.24 18.4875,64.68 18.4875,60.44 C18.4875,56 21.6475,52.84 26.0075,52.84 C27.9675,52.84 29.2875,53.32 31.1275,54.8 C31.5275,55.12 31.6875,55.2 31.8475,55.2 C32.0875,55.2 32.2875,55 32.2875,54.76 C32.2875,54.56 32.2875,54.56 30.7275,53 C29.1675,51.48 28.1275,48.96 28.1275,46.8 C28.1275,45.32 28.5675,43.8 29.2875,42.64 C30.6075,40.6 33.1275,39.2 35.6075,39.2 C39.7675,39.2 43.2075,42.68 43.2075,46.92 C43.2075,49 42.4875,50.88 40.9275,52.68 C40.4875,53.24 40.0075,53.72 39.5675,54.08 C39.2075,54.36 39.0475,54.6 39.0475,54.8 C39.0475,55 39.2475,55.16 39.4475,55.16 C39.6875,55.16 39.8475,55.08 40.2475,54.68 C41.6875,53.32 42.9675,52.84 45.0475,52.84 C49.4875,52.84 52.8875,56 52.8875,60.12 C52.8875,62.44 52.1675,64.44 50.7675,65.92 C49.3675,67.4 47.2475,68.32 45.2475,68.32 C42.4075,68.32 40.0075,66.72 38.5675,63.92 C38.0875,63 38.0075,62.8 37.6875,61.12 C37.6075,60.76 37.4475,60.56 37.2475,60.56 C36.9275,60.56 36.8875,60.8 36.8875,62.36 C36.8875,64.72 37.3675,67.84 37.9675,69.4 C38.5675,71.04 39.3675,72.32 40.7675,74.16 Z"/>
    <text fill="#000" font-family="SFUIDisplay-Bold, SF UI Display" font-size="24" font-weight="bold">
      <tspan x="8" y="27">9</tspan>
    </text>
  </g>
</svg>
