<svg xmlns="http://www.w3.org/2000/svg" xmlns:xlink="http://www.w3.org/1999/xlink" width="78" height="106" viewBox="0 0 78 106">
  <defs>
    <path id="44-b" d="M0.714285714,9.00325975 C0.714285714,4.03089669 4.73959762,-7.10542736e-15 9.72386554,-7.10542736e-15 L63.7047059,-7.10542736e-15 C68.6805594,-7.10542736e-15 72.7142857,4.026957 72.7142857,9.00325975 L72.7142857,90.9610261 C72.7142857,95.9333892 68.6889738,99.9642859 63.7047059,99.9642859 L9.72386554,99.9642859 C4.748012,99.9642859 0.714285714,95.9373289 0.714285714,90.9610261 L0.714285714,9.00325975 Z"/>
    <filter id="44-a" width="115.3%" height="111%" x="-7.6%" y="-3.5%" filterUnits="objectBoundingBox">
      <feOffset dy="2" in="SourceAlpha" result="shadowOffsetOuter1"/>
      <feGaussianBlur in="shadowOffsetOuter1" result="shadowBlurOuter1" stdDeviation="1.5"/>
      <feColorMatrix in="shadowBlurOuter1" values="0 0 0 0 0   0 0 0 0 0   0 0 0 0 0  0 0 0 0.08 0"/>
    </filter>
  </defs>
  <g id="card" fill="none" fill-rule="evenodd" transform="translate(2 1)">
    <use fill="#000" filter="url(#44-a)" xlink:href="#44-b"/>
    <use fill="#FFF" xlink:href="#44-b"/>
    <path fill="#FC4C02" d="M36.4017857,74.6 C29.5217857,67.52 28.8017857,66.72 26.1617857,63.2 C22.2417857,58.04 20.2817857,53.4 20.2817857,49.48 C20.2817857,47.16 21.0417857,44.68 22.2817857,42.92 C23.8817857,40.68 26.0817857,39.6 29.0817857,39.6 C30.8017857,39.6 32.0817857,39.96 33.1217857,40.68 C34.4817857,41.64 35.5217857,43.32 35.8417857,45.12 C36.1217857,46.44 36.1617857,46.56 36.4017857,46.56 C36.6417857,46.56 36.7617857,46.32 36.9617857,45.12 C37.3217857,43.16 38.4817857,41.36 39.9617857,40.52 C40.9217857,40 42.6017857,39.6 44.0417857,39.6 C45.7217857,39.6 47.4017857,40.16 48.8017857,41.12 C51.2417857,42.8 52.5217857,45.72 52.5217857,49.56 C52.5217857,52.56 51.8017857,55.08 50.0817857,58.12 C48.0817857,61.68 45.5217857,65 41.6017857,69.12 C37.3617857,73.6 37.3617857,73.6 36.4017857,74.6 Z"/>
    <text fill="#000" font-family="SFUIDisplay-Bold, SF UI Display" font-size="24" font-weight="bold">
      <tspan x="8.714" y="27">A</tspan>
    </text>
  </g>
</svg>
