<svg xmlns="http://www.w3.org/2000/svg" xmlns:xlink="http://www.w3.org/1999/xlink" width="78" height="106" viewBox="0 0 78 106">
  <defs>
    <path id="4-b" d="M0,9.00325975 C0,4.03089669 4.0253119,4.97379915e-14 9.00957983,4.97379915e-14 L62.9904202,4.97379915e-14 C67.9662737,4.97379915e-14 72,4.026957 72,9.00325975 L72,90.9610261 C72,95.9333892 67.9746881,99.9642859 62.9904202,99.9642859 L9.00957983,99.9642859 C4.03372629,99.9642859 0,95.9373289 0,90.9610261 L0,9.00325975 Z"/>
    <filter id="4-a" width="115.3%" height="111%" x="-7.6%" y="-3.5%" filterUnits="objectBoundingBox">
      <feOffset dy="2" in="SourceAlpha" result="shadowOffsetOuter1"/>
      <feGaussianBlur in="shadowOffsetOuter1" result="shadowBlurOuter1" stdDeviation="1.5"/>
      <feColorMatrix in="shadowBlurOuter1" values="0 0 0 0 0   0 0 0 0 0   0 0 0 0 0  0 0 0 0.08 0"/>
    </filter>
  </defs>
  <g fill="none" fill-rule="evenodd" transform="translate(3 1)">
    <use fill="#000" filter="url(#4-a)" xlink:href="#4-b"/>
    <use fill="#FFF" xlink:href="#4-b"/>
    <path fill="#FC4C02" d="M35.6875,74.6 C28.8075,67.52 28.0875,66.72 25.4475,63.2 C21.5275,58.04 19.5675,53.4 19.5675,49.48 C19.5675,47.16 20.3275,44.68 21.5675,42.92 C23.1675,40.68 25.3675,39.6 28.3675,39.6 C30.0875,39.6 31.3675,39.96 32.4075,40.68 C33.7675,41.64 34.8075,43.32 35.1275,45.12 C35.4075,46.44 35.4475,46.56 35.6875,46.56 C35.9275,46.56 36.0475,46.32 36.2475,45.12 C36.6075,43.16 37.7675,41.36 39.2475,40.52 C40.2075,40 41.8875,39.6 43.3275,39.6 C45.0075,39.6 46.6875,40.16 48.0875,41.12 C50.5275,42.8 51.8075,45.72 51.8075,49.56 C51.8075,52.56 51.0875,55.08 49.3675,58.12 C47.3675,61.68 44.8075,65 40.8875,69.12 C36.6475,73.6 36.6475,73.6 35.6875,74.6 Z"/>
  </g>
</svg>
