<svg xmlns="http://www.w3.org/2000/svg" xmlns:xlink="http://www.w3.org/1999/xlink" width="78" height="106" viewBox="0 0 78 106">
  <defs>
    <path id="22-b" d="M0,9.00325975 C0,4.03089669 4.0253119,-7.10542736e-15 9.00957983,-7.10542736e-15 L62.9904202,-7.10542736e-15 C67.9662737,-7.10542736e-15 72,4.026957 72,9.00325975 L72,90.9610261 C72,95.9333892 67.9746881,99.9642859 62.9904202,99.9642859 L9.00957983,99.9642859 C4.03372629,99.9642859 0,95.9373289 0,90.9610261 L0,9.00325975 Z"/>
    <filter id="22-a" width="115.3%" height="111%" x="-7.6%" y="-3.5%" filterUnits="objectBoundingBox">
      <feOffset dy="2" in="SourceAlpha" result="shadowOffsetOuter1"/>
      <feGaussianBlur in="shadowOffsetOuter1" result="shadowBlurOuter1" stdDeviation="1.5"/>
      <feColorMatrix in="shadowBlurOuter1" values="0 0 0 0 0   0 0 0 0 0   0 0 0 0 0  0 0 0 0.08 0"/>
    </filter>
  </defs>
  <g id="card" fill="none" fill-rule="evenodd" transform="translate(3 1)">
    <use fill="#000" filter="url(#22-a)" xlink:href="#22-b"/>
    <use fill="#FFF" xlink:href="#22-b"/>
    <path fill="#000" d="M35.7275,39.16 C38.5675,42.92 38.5675,42.92 43.0475,48.64 C46.0475,52.44 47.4475,54.48 48.4075,56.36 C49.2875,58.04 49.8875,60.32 49.8875,61.84 C49.8875,64.36 48.7275,66.8 46.9675,68 C45.8075,68.8 44.4475,69.2 43.0075,69.2 C40.0475,69.2 38.0475,67.64 37.3675,64.8 C37.2075,64.04 37.0875,63.8 36.8875,63.8 C36.6875,63.8 36.5675,64.08 36.5675,64.44 C36.5675,65.44 37.0475,67.76 37.5675,69.28 C38.2475,71.12 39.0075,72.44 40.5675,74.32 C37.9675,73.92 36.8475,73.8 35.7275,73.8 C34.0075,73.8 32.6875,73.92 30.6875,74.32 C32.2875,72.64 33.1275,71.28 33.8475,69 C34.2475,67.68 34.7675,65.08 34.7675,64.32 C34.7675,64 34.6475,63.8 34.4475,63.8 C34.3275,63.8 34.2475,63.88 34.2075,64.04 C33.7675,65.48 33.3275,66.36 32.5275,67.44 C31.6875,68.6 30.2475,69.2 28.3275,69.2 C24.2475,69.2 21.4475,66.16 21.4475,61.72 C21.4475,59.28 22.2075,57.2 24.2875,53.96 C25.5675,52 25.5675,52 32.1275,43.92 C34.0075,41.6 34.4875,40.96 35.7275,39.16 Z"/>
    <text fill="#000" font-family="SFUIDisplay-Bold, SF UI Display" font-size="24" font-weight="bold">
      <tspan x="8" y="27">Q</tspan>
    </text>
  </g>
</svg>
